<svg xmlns="http://www.w3.org/2000/svg" xmlns:xlink="http://www.w3.org/1999/xlink" width="238" height="64" viewBox="0 0 238 64"><defs><path id="ifv5a" d="M160 63a32 32 0 1 1 0 64 32 32 0 0 1 0-64z"/><path id="ifv5b" d="M141.8 99.05a4.17 4.17 0 1 1 7.22-4.17 4.17 4.17 0 0 1-7.22 4.17z"/><path id="ifv5c" d="M144.97 89.52a4.17 4.17 0 1 1 7.21-4.16 4.17 4.17 0 0 1-7.21 4.16z"/><path id="ifv5d" d="M153.63 84.52a4.17 4.17 0 1 1 7.21-4.16 4.17 4.17 0 0 1-7.21 4.16z"/><path id="ifv5e" d="M163.45 86.55a4.17 4.17 0 1 1 7.22-4.17 4.17 4.17 0 0 1-7.22 4.17z"/><path id="ifv5f" d="M168.41 94c-2.1-.75-3.88-1.4-6-2.14a7.07 7.07 0 0 0-3.63-.44c-.2.03-.37.08-.55.14-.4.15-.78.38-1.16.6-.37.21-.76.44-1.1.73-.14.12-.27.25-.4.4-.81.93-1.2 2.2-1.43 3.36-.4 2.2-.73 4.07-1.15 6.27-.8 2.98-1.91 6.42.21 9.1a5.23 5.23 0 0 0 5.3 1.4c1.18-.39 4.05-3.18 7.63-5.25l.26-.15c3.58-2.06 7.42-3.17 8.36-3.98a5.26 5.26 0 0 0 1.43-5.29c-1.25-3.2-4.79-3.95-7.77-4.75z"/></defs><g><g transform="translate(-128 -63)"><g fill="#fff" font-family="'Basic Sans','Helvetica'" font-size="24" font-style="none" font-weight="400" letter-spacing="2.4" style="line-height:28px;font-kerning:normal"><text dominant-baseline="text-before-edge" font-family="Helvetica, Arial, sans-serif" transform="translate(207 88)"><tspan font-family="Helvetica">PAWTASTIC</tspan></text></g></g><g transform="translate(-128 -63)"><use fill="#fff" xlink:href="#ifv5a"/></g><g transform="translate(-128 -63)"><g><use fill="#545871" xlink:href="#ifv5b"/></g><g><use fill="#545871" xlink:href="#ifv5c"/></g><g><use fill="#545871" xlink:href="#ifv5d"/></g><g><use fill="#545871" xlink:href="#ifv5e"/></g><g><use fill="#545871" xlink:href="#ifv5f"/></g></g></g></svg>